<?xml version="1.0" encoding="UTF-8" standalone="no"?>
<!-- Created with Inkscape (http://www.inkscape.org/) -->

<svg
   xmlns:dc="http://purl.org/dc/elements/1.1/"
   xmlns:cc="http://creativecommons.org/ns#"
   xmlns:rdf="http://www.w3.org/1999/02/22-rdf-syntax-ns#"
   xmlns:svg="http://www.w3.org/2000/svg"
   xmlns="http://www.w3.org/2000/svg"
   xmlns:xlink="http://www.w3.org/1999/xlink"
   xmlns:sodipodi="http://sodipodi.sourceforge.net/DTD/sodipodi-0.dtd"
   xmlns:inkscape="http://www.inkscape.org/namespaces/inkscape"
   inkscape:export-ydpi="28.439075"
   inkscape:export-xdpi="28.439075"
   inkscape:export-filename="C:\Documents and Settings\HP_Owner.WINXPMAIN\Desktop\Aubanel MONNIER\newspaper_aubanel_monnie_01.png"
   version="1.0"
   inkscape:output_extension="org.inkscape.output.svg.inkscape"
   width="699.38983"
   sodipodi:version="0.32"
   sodipodi:docname="newspaper2.svg"
   inkscape:version="0.48.3.1 r9886"
   id="svg1"
   height="405.04843">
  <sodipodi:namedview
     bordercolor="#666666"
     borderopacity="1.0"
     id="base"
     inkscape:current-layer="layer1"
     inkscape:cx="484.44419"
     inkscape:cy="202.52422"
     inkscape:document-units="px"
     inkscape:pageopacity="0.0"
     inkscape:pageshadow="2"
     inkscape:window-height="673"
     inkscape:window-width="946"
     inkscape:window-x="436"
     inkscape:window-y="60"
     inkscape:zoom="0.96149316"
     pagecolor="#ffffff"
     showgrid="false"
     inkscape:window-maximized="0" />
  <metadata
     id="metadata3">
    <rdf:RDF>
      <cc:Work
         rdf:about="">
        <dc:title>Newspaper</dc:title>
        <dc:description>a news paper</dc:description>
        <dc:subject>
          <rdf:Bag>
            <rdf:li>mimeicon</rdf:li>
            <rdf:li>office</rdf:li>
            <rdf:li>icon</rdf:li>
            <rdf:li />
            <rdf:li>book</rdf:li>
            <rdf:li>news</rdf:li>
            <rdf:li>work</rdf:li>
          </rdf:Bag>
        </dc:subject>
        <dc:publisher>
          <cc:Agent
             rdf:about="http://www.openclipart.org">
            <dc:title>Aubanel MONNIER</dc:title>
          </cc:Agent>
        </dc:publisher>
        <dc:creator>
          <cc:Agent>
            <dc:title>Aubanel MONNIER</dc:title>
          </cc:Agent>
        </dc:creator>
        <dc:rights>
          <cc:Agent>
            <dc:title>Aubanel MONNIER</dc:title>
          </cc:Agent>
        </dc:rights>
        <dc:date />
        <dc:format>image/svg+xml</dc:format>
        <dc:type
           rdf:resource="http://purl.org/dc/dcmitype/StillImage" />
        <cc:license
           rdf:resource="http://web.resource.org/cc/PublicDomain" />
        <dc:language>en</dc:language>
      </cc:Work>
      <cc:License
         rdf:about="http://web.resource.org/cc/PublicDomain">
        <cc:permits
           rdf:resource="http://web.resource.org/cc/Reproduction" />
        <cc:permits
           rdf:resource="http://web.resource.org/cc/Distribution" />
        <cc:permits
           rdf:resource="http://web.resource.org/cc/DerivativeWorks" />
      </cc:License>
    </rdf:RDF>
  </metadata>
  <defs
     id="defs3">
    <inkscape:perspective
       id="perspective60"
       inkscape:persp3d-origin="372.04724 : 350.78739 : 1"
       inkscape:vp_z="744.09448 : 526.18109 : 1"
       inkscape:vp_y="0 : 1000 : 0"
       inkscape:vp_x="0 : 526.18109 : 1"
       sodipodi:type="inkscape:persp3d" />
    <linearGradient
       id="linearGradient542">
      <stop
         style="stop-color:#0e1e5f;stop-opacity:1.0000000;"
         offset="0.00000000"
         id="stop543" />
      <stop
         style="stop-color:#0f4f76;stop-opacity:1.0000000;"
         offset="0.35058498"
         id="stop770" />
      <stop
         style="stop-color:#2979aa;stop-opacity:1.0000000;"
         offset="0.84552848"
         id="stop544" />
      <stop
         style="stop-color:#000000;stop-opacity:1.0000000;"
         offset="1.0000000"
         id="stop545" />
    </linearGradient>
    <linearGradient
       id="linearGradient452">
      <stop
         style="stop-color:#000000;stop-opacity:0.094117649;"
         offset="0.00000000"
         id="stop453" />
      <stop
         style="stop-color:#000000;stop-opacity:0.27058825;"
         offset="0.14634146"
         id="stop917" />
      <stop
         style="stop-color:#000000;stop-opacity:0.00000000;"
         offset="1.0000000"
         id="stop454" />
    </linearGradient>
    <linearGradient
       id="linearGradient220">
      <stop
         style="stop-color:#ffffff;stop-opacity:1.0000000;"
         offset="0.00000000"
         id="stop221" />
      <stop
         style="stop-color:#efefef;stop-opacity:1.0000000;"
         offset="0.84552848"
         id="stop224" />
      <stop
         style="stop-color:#a2a2a2;stop-opacity:1.0000000;"
         offset="1.0000000"
         id="stop222" />
    </linearGradient>
    <linearGradient
       id="linearGradient216">
      <stop
         style="stop-color:#505050;stop-opacity:1.0000000;"
         offset="0.00000000"
         id="stop217" />
      <stop
         style="stop-color:#bfbfbf;stop-opacity:1.0000000;"
         offset="1.0000000"
         id="stop218" />
    </linearGradient>
    <linearGradient
       y2="657.97278"
       y1="671.05518"
       xlink:href="#linearGradient216"
       x2="296.37903"
       x1="296.42935"
       inkscape:collect="always"
       id="linearGradient921"
       gradientUnits="userSpaceOnUse"
       gradientTransform="matrix(20.61913,0,0,13.42566,-5850.081,-8590.833)" />
    <linearGradient
       y2="714.64282"
       y1="683.88354"
       xlink:href="#linearGradient220"
       x2="285.31543"
       x1="285.51788"
       inkscape:collect="always"
       id="linearGradient922"
       gradientUnits="userSpaceOnUse"
       gradientTransform="matrix(21.86298,0,0,12.66184,-5850.081,-8590.833)" />
  </defs>
  <g
     transform="translate(-40.278165,-66.162288)"
     inkscape:label="Layer 1"
     inkscape:groupmode="layer"
     id="layer1">
    <path
       style="fill:url(#linearGradient922);fill-opacity:1;fill-rule:evenodd;stroke:#000000;stroke-width:3.5;stroke-linecap:butt;stroke-linejoin:miter;stroke-miterlimit:4;stroke-opacity:1;stroke-dasharray:none"
       sodipodi:nodetypes="ccccccc"
       inkscape:export-ydpi="51.472328"
       inkscape:export-xdpi="51.472328"
       inkscape:export-filename="/home/rowlings/Personal/Web/barry/source/imagery/news.png"
       id="path30"
       d="M 139.62208,74.481324 C 139.6219,74.48115 46.51991,351.23788 48.632622,408.28265 C 50.745479,465.32747 107.90575,462.87632 107.90575,462.87632 L 672.04043,462.87632 C 672.04043,462.87632 729.20053,465.32747 731.31355,408.28265 C 733.42627,351.23788 640.32392,74.48115 640.32411,74.481324 L 139.62208,74.481324 z" />
    <path
       style="fill:url(#linearGradient921);fill-opacity:1;fill-rule:evenodd;stroke:#555555;stroke-width:16.63807297;stroke-linecap:butt;stroke-linejoin:miter;stroke-miterlimit:4;stroke-opacity:1"
       inkscape:export-ydpi="51.472328"
       inkscape:export-xdpi="51.472328"
       inkscape:export-filename="/home/rowlings/Personal/Web/barry/source/imagery/news.png"
       id="path33"
       d="M 399.49299,243.40533 L 156.52421,243.40533 C 156.52421,243.40533 112.15612,355.38225 114.2688,393.41203 C 116.38152,431.44186 139.62208,427.21646 139.62208,427.21646 L 399.49299,427.21646 L 399.49299,243.40533 z" />
    <text
       y="120.12617"
       xml:space="preserve"
       x="520.15076"
       style="font-size:7.69969654px;font-style:normal;font-variant:normal;font-weight:bold;font-stretch:normal;line-height:110.00000238%;writing-mode:lr-tb;text-anchor:start;fill:#000000;fill-opacity:1;stroke:none;stroke-width:1pt;stroke-linecap:butt;stroke-linejoin:miter;stroke-opacity:1;font-family:Bookman Old Style"
       sodipodi:linespacing="110%"
       inkscape:export-ydpi="51.472328"
       inkscape:export-xdpi="51.472328"
       inkscape:export-filename="/home/rowlings/Personal/Web/barry/source/imagery/news.png"
       id="text49"><tspan
         y="120.12617"
         x="520.15076"
         sodipodi:role="line"
         id="tspan945">Dec 29, 2004 - The Inkscape </tspan><tspan
         y="128.59584"
         x="520.15076"
         sodipodi:role="line"
         id="tspan947">developers have set a goal</tspan><tspan
         y="137.06551"
         x="520.15076"
         sodipodi:role="line"
         id="tspan949">for the release of Inkscape 0.41 </tspan><tspan
         y="145.53517"
         x="520.15076"
         sodipodi:role="line"
         id="tspan951">for mid-late January. There are </tspan><tspan
         y="154.00484"
         x="520.15076"
         sodipodi:role="line"
         id="tspan953">some noteworthy new features </tspan><tspan
         y="162.4745"
         x="520.15076"
         sodipodi:role="line"
         id="tspan955">that would be worth getting out </tspan><tspan
         y="170.94417"
         x="520.15076"
         sodipodi:role="line"
         id="tspan957">to users, and with some major </tspan><tspan
         y="179.41383"
         x="520.15076"
         sodipodi:role="line"
         id="tspan959">internal changes that will be </tspan><tspan
         y="187.8835"
         x="520.15076"
         sodipodi:role="line"
         id="tspan961">taking place soon, a good stable </tspan><tspan
         y="196.35316"
         x="520.15076"
         sodipodi:role="line"
         id="tspan963">release is needed prior to starting </tspan><tspan
         y="204.82283"
         x="520.15076"
         sodipodi:role="line"
         id="tspan965">such an undertaking.</tspan></text>
    <text
       y="236.60193"
       xml:space="preserve"
       x="437.09244"
       style="font-size:16.47625923px;font-style:normal;font-variant:normal;font-weight:300;font-stretch:normal;writing-mode:lr-tb;text-anchor:start;fill:#000000;fill-opacity:1;stroke:none;font-family:Bookman Old Style"
       inkscape:export-ydpi="51.472328"
       inkscape:export-xdpi="51.472328"
       inkscape:export-filename="/home/rowlings/Personal/Web/barry/source/imagery/news.png"
       id="text90"><tspan
         y="236.60193"
         x="437.09244"
         sodipodi:role="line"
         id="tspan923">Mar - The Inksca pe </tspan><tspan
         y="257.19727"
         x="437.09244"
         sodipodi:role="line"
         id="tspan925">developers have set a goal</tspan><tspan
         y="277.79257"
         x="437.09244"
         sodipodi:role="line"
         id="tspan927">for the release of Inkscape 0.41 </tspan><tspan
         y="298.38791"
         x="437.09244"
         sodipodi:role="line"
         id="tspan929">for mid-late January. There are </tspan><tspan
         y="318.98322"
         x="437.09244"
         sodipodi:role="line"
         id="tspan931">some noteworthy new features </tspan><tspan
         y="339.57855"
         x="437.09244"
         sodipodi:role="line"
         id="tspan933">that would be worth getting out </tspan><tspan
         y="360.17386"
         x="437.09244"
         sodipodi:role="line"
         id="tspan935">to users, and with some major </tspan><tspan
         y="380.7692"
         x="437.09244"
         sodipodi:role="line"
         id="tspan937">internal changes that will be </tspan><tspan
         y="401.36453"
         x="437.09244"
         sodipodi:role="line"
         id="tspan939">taking place soon, a good stable </tspan><tspan
         y="421.95984"
         x="437.09244"
         sodipodi:role="line"
         id="tspan941">release is needed prior to starting </tspan><tspan
         y="442.55518"
         x="437.09244"
         sodipodi:role="line"
         id="tspan943">such an undertaking.</tspan></text>
    <g
       transform="matrix(16.63807,0,0,16.63807,-5850.082,-8590.836)"
       inkscape:export-ydpi="51.472328"
       inkscape:export-xdpi="51.472328"
       inkscape:export-filename="/home/rowlings/Personal/Web/barry/source/imagery/news.png"
       id="g466">
      <text
         y="528.50177"
         xml:space="preserve"
         x="503.93686"
         transform="matrix(1,0,-0.273892,1,0,0)"
         style="font-size:7.19524765px;font-style:normal;font-variant:normal;font-weight:bold;font-stretch:normal;line-height:100%;writing-mode:lr-tb;text-anchor:start;fill:#000000;fill-opacity:1;stroke:none;stroke-width:1pt;stroke-linecap:butt;stroke-linejoin:miter;stroke-opacity:1;font-family:Bitstream Vera Sans"
         sodipodi:linespacing="100%"
         id="text46"><tspan
           y="528.50177"
           x="503.93686"
           style="letter-spacing:-0.82717609;font-family:Bitstream Vera Sans"
           sodipodi:role="line"
           id="tspan47">N</tspan></text>
      <text
         y="528.50177"
         xml:space="preserve"
         x="437.3074"
         transform="matrix(1,0,-0.136946,1,0,0)"
         style="font-size:7.19524765px;font-style:normal;font-variant:normal;font-weight:bold;font-stretch:normal;line-height:100%;writing-mode:lr-tb;text-anchor:start;fill:#000000;fill-opacity:1;stroke:none;stroke-width:1pt;stroke-linecap:butt;stroke-linejoin:miter;stroke-opacity:1;font-family:Bitstream Vera Sans"
         sodipodi:linespacing="100%"
         id="text460"><tspan
           y="528.50177"
           x="437.3074"
           style="letter-spacing:-0.82717609;font-family:Bitstream Vera Sans"
           sodipodi:role="line"
           id="tspan461">E</tspan></text>
      <text
         y="528.3999"
         xml:space="preserve"
         x="370.13919"
         style="font-size:7.19524765px;font-style:normal;font-variant:normal;font-weight:bold;font-stretch:normal;line-height:100%;writing-mode:lr-tb;text-anchor:start;fill:#000000;fill-opacity:1;stroke:none;stroke-width:1pt;stroke-linecap:butt;stroke-linejoin:miter;stroke-opacity:1;font-family:Bitstream Vera Sans"
         sodipodi:linespacing="100%"
         id="text463"><tspan
           y="528.3999"
           x="370.13919"
           style="letter-spacing:-0.82717609;font-family:Bitstream Vera Sans"
           sodipodi:role="line"
           id="tspan464">WS</tspan></text>
    </g>
    <rect
       y="182.53934"
       x="53.002834"
       width="663.99811"
       style="fill:none;fill-opacity:1;fill-rule:nonzero;stroke:none;stroke-width:3;stroke-linecap:round;stroke-linejoin:round;marker:none;marker-start:none;marker-mid:none;marker-end:none;stroke-miterlimit:4;stroke-dashoffset:0;stroke-opacity:1;visibility:visible;display:block"
       inkscape:export-ydpi="51.472328"
       inkscape:export-xdpi="51.472328"
       inkscape:export-filename="/home/rowlings/Personal/Web/barry/source/imagery/news.png"
       id="rect620"
       height="53.408539" />
    <g
       transform="translate(38.005785,71.423845)"
       id="g3558"
       inkscape:export-filename="/home/rowlings/Personal/Web/barry/source/imagery/news.png"
       inkscape:export-xdpi="51.472328"
       inkscape:export-ydpi="51.472328">
      <path
         inkscape:connector-curvature="0"
         id="rect3548"
         d="m 195.993,40.343162 178.74262,0 0,84.625548 -178.74262,0 z"
         style="fill:#ff0000" />
      <g
         transform="translate(392.48879,-6.2798206)"
         id="text3550"
         style="font-size:40px;font-style:normal;font-weight:normal;line-height:125%;letter-spacing:0px;word-spacing:0px;fill:#ffffff;fill-opacity:1;stroke:none;font-family:Sans" />
      <path
         inkscape:connector-curvature="0"
         id="path3219"
         d="M 71.350402,145.45414 115.30915,18.287772 468.54906,16.717817 463.83919,143.88419 z"
         style="fill:#ff0000;stroke:#ff0000;stroke-width:1px;stroke-linecap:butt;stroke-linejoin:miter;stroke-opacity:1"
         sodipodi:nodetypes="ccccc" />
      <g
         inkscape:transform-center-x="-43.958744"
         transform="translate(136.5861,-91.057399)"
         id="text3554"
         style="font-size:40px;font-style:normal;font-weight:normal;line-height:125%;letter-spacing:0px;word-spacing:0px;fill:#ffffff;fill-opacity:1;stroke:none;font-family:Sans">
        <path
           d="m 276.83522,155.63983 c 0,0 -3.75592,14.31775 -3.75592,14.31775 0,0 -60.54143,41.99681 -60.54143,41.99681 0,0 51.11761,0.13449 51.11761,0.13449 0,0 -4.18948,16.06869 -4.18948,16.06869 0,0 -84.66411,-0.3233 -84.66411,-0.3233 0,0 5.47428,-15.96476 5.47428,-15.96476 0,0 61.98172,-41.89714 61.98172,-41.89714 0,0 -44.37181,0.0213 -44.37181,0.0213 0,0 4.83531,-14.24001 4.83531,-14.24001 0,0 74.11383,-0.11381 74.11383,-0.11381 M 146.2335,154.7294 c 6.59271,-0.0106 12.16428,0.47427 16.71944,1.45669 4.69045,0.90237 8.08489,2.1822 10.18006,3.84252 2.10885,1.58325 3.58103,3.17293 4.41286,4.76886 0.83456,1.60166 1.19536,3.29397 1.07984,5.07775 -0.0995,1.53437 -0.57971,3.45931 -1.44338,5.77936 0,0 -14.34505,40.35788 -14.34505,40.35788 -0.4728,1.30901 -0.73529,2.29326 -0.7866,2.95087 -0.15473,1.97804 0.98493,4.11059 3.42843,6.40021 0,0 -0.93093,2.43157 -0.93093,2.43157 0,0 -28.62862,-0.10932 -28.62862,-0.10932 -0.72231,-1.43339 -1.02299,-2.71856 -0.90381,-3.85676 0.11878,-1.13563 0.43776,-2.40954 0.95587,-3.82072 -11.45056,7.25235 -22.27466,10.89332 -32.34947,10.85238 -8.32209,-0.0339 -14.764321,-1.78164 -19.308671,-5.22393 -4.510331,-3.41651 -6.30544,-7.87274 -5.417976,-13.34264 0.224079,-1.38111 0.719686,-2.94118 1.485285,-4.67857 0.777628,-1.82243 2.145823,-3.95448 4.099778,-6.39244 2.064746,-2.42625 4.511407,-4.66187 7.33908,-6.7095 2.816883,-2.03979 6.616841,-3.93833 11.397334,-5.69753 4.77833,-1.84171 10.12059,-3.10861 16.03543,-3.80473 0,0 10.48634,-1.17345 10.48634,-1.17345 0.48562,-0.087 1.50642,-0.17374 3.06252,-0.26024 1.56562,-0.17368 2.71001,-0.30397 3.43327,-0.39089 0.72307,-0.0868 1.8077,-0.21712 3.25375,-0.39085 1.57365,-0.26074 2.72607,-0.47804 3.45753,-0.65197 0.73985,-0.26086 1.71729,-0.52155 2.93221,-0.78207 1.22274,-0.34728 2.1519,-0.73792 2.78759,-1.17181 0.7538,-0.43342 1.45583,-0.95316 2.10598,-1.55896 0.76783,-0.60499 1.30175,-1.25248 1.60213,-1.94226 0.42603,-0.77478 0.67798,-1.59131 0.75626,-2.44936 0.33462,-3.6719 -3.7855,-5.49487 -12.35021,-5.49 -5.62574,0.003 -10.04185,0.72539 -13.25801,2.16914 -3.10714,1.44753 -5.64403,3.9251 -7.61512,7.44865 0,0 -23.162014,-0.003 -23.162014,-0.003 3.699934,-8.36587 9.449414,-14.34128 17.256344,-18.01427 7.88092,-3.73109 18.60481,-5.59819 32.23253,-5.62031 m -1.75978,42.81361 c 0,0 1.94198,-5.09621 1.94198,-5.09621 -1.50438,0.62152 -4.39466,1.24188 -8.67175,1.86092 0,0 -12.0787,1.45794 -12.0787,1.45794 -5.98208,0.70738 -10.736,2.13487 -14.26946,4.2885 -3.42658,2.16235 -5.36115,4.83678 -5.7957,8.03236 -0.62573,4.60116 3.52624,6.93065 12.46928,6.95641 6.2549,0.018 11.64206,-1.5001 16.1385,-4.54173 4.59364,-3.02463 8.0156,-7.35559 10.26585,-12.95819 M 56.426691,133.34327 c 6.353223,-0.0205 11.709751,0.54728 16.075604,1.70607 4.491943,1.16237 7.750749,2.72599 9.772416,4.69485 2.044248,1.89862 3.405419,3.88726 4.078969,5.96675 0.689689,2.0087 0.849819,4.14884 0.476708,6.42195 -1.429788,8.70694 -9.481281,16.35828 -24.262587,22.88847 3.969906,2.5658 6.664604,5.1898 8.072341,7.87216 1.533864,2.69824 1.994049,5.85042 1.370269,9.46467 -0.321474,1.86168 -1.048564,3.99744 -2.184452,6.41071 -1.141609,2.42496 -3.218202,5.35802 -6.240562,8.80748 -3.042738,3.47245 -6.774724,6.64246 -11.197886,9.50371 -4.306478,2.78309 -10.20996,5.19902 -17.711337,7.24195 -7.504498,1.95468 -15.853136,2.91661 -25.0203006,2.8816 0,0 -59.8251604,-0.22845 -59.8251604,-0.22845 0,0 52.5043607,-93.45705 52.5043607,-93.45705 0,0 54.0916173,-0.17487 54.0916173,-0.17487 m -19.716674,35.21406 c 8.083396,-0.005 13.949617,-1.30907 17.577654,-3.90324 3.625782,-2.66409 5.747874,-5.64237 6.376957,-8.92784 0.499901,-2.61181 -0.385233,-4.51831 -2.648308,-5.72767 -2.143253,-1.20588 -5.815841,-1.80199 -11.019436,-1.79102 0,0 -27.759665,0.0588 -27.759665,0.0588 0,0 -10.8573183,20.30773 -10.8573183,20.30773 0,0 28.3301163,-0.0168 28.3301163,-0.0168 m -18.210851,41.23878 c 8.536988,0.0214 14.949321,-1.56101 19.20993,-4.73322 4.253594,-3.24362 6.808765,-7.05171 7.678928,-11.40974 1.212078,-6.0715 -3.534551,-9.0823 -14.215728,-9.08884 0,0 -31.24097204,-0.019 -31.24097204,-0.019 0,0 -13.43856596,25.17059 -13.43856596,25.17059 0,0 32.006408,0.0802 32.006408,0.0802 M 292.50476,114.20002 c 0,0 8.72276,-0.04 8.72276,-0.04 0,0 7.61906,7.45164 7.61906,7.45164 0,0 6.49364,-7.51638 6.49364,-7.51638 0,0 8.77296,-0.0402 8.77296,-0.0402 0,0 -10.84677,12.27571 -10.84677,12.27571 0,0 0.73004,9.10886 0.73004,9.10886 0,0 -8.1812,0.0247 -8.1812,0.0247 0,0 -0.64851,-9.10368 -0.64851,-9.10368 0,0 -12.66198,-12.16059 -12.66198,-12.16059 m -16.04871,0.0736 c 0,0 7.95756,-0.0365 7.95756,-0.0365 0,0 0.83715,17.06034 0.83715,17.06034 0,0 14.26212,-0.0475 14.26212,-0.0475 0,0 0.27372,4.23248 0.27372,4.23248 0,0 -22.47523,0.0678 -22.47523,0.0678 0,0 -0.85532,-21.27665 -0.85532,-21.27665 m -15.76351,0.0723 c 0,0 7.93905,-0.0364 7.93905,-0.0364 0,0 0.6694,21.26494 0.6694,21.26494 0,0 -8.12748,0.0245 -8.12748,0.0245 0,0 -0.48097,-21.25304 -0.48097,-21.25304 m -13.83609,17.35349 c 0,0 -12.60783,0.0417 -12.60783,0.0417 0,0 -2.02245,3.94518 -2.02245,3.94518 0,0 -8.12503,0.0245 -8.12503,0.0245 0,0 11.72104,-21.25081 11.72104,-21.25081 0,0 9.43133,-0.0433 9.43133,-0.0433 0,0 11.76502,21.19476 11.76502,21.19476 0,0 -8.15489,0.0246 -8.15489,0.0246 0,0 -2.00719,-3.93669 -2.00719,-3.93669 m -10.58091,-3.94248 c 0,0 8.52852,-0.0307 8.52852,-0.0307 0,0 -4.25671,-8.40113 -4.25671,-8.40113 0,0 -4.27181,8.43186 -4.27181,8.43186 m -35.24233,-9.08995 c 0,0 -0.56351,12.91272 -0.56351,12.91272 0,0 2.87282,-0.01 2.87282,-0.01 3.27676,-0.0109 5.79622,-0.57994 7.55432,-1.70524 1.76806,-1.12287 2.68188,-2.744 2.74418,-4.85785 0.0616,-2.09463 -0.74384,-3.67924 -2.41296,-4.75892 -1.66474,-1.0768 -4.11818,-1.60719 -7.36248,-1.59329 0,0 -2.83237,0.0121 -2.83237,0.0121 m -7.68359,-4.01215 c 0,0 8.28927,-0.038 8.28927,-0.038 4.63225,-0.0212 8.07355,0.18934 10.32376,0.63215 2.26711,0.43414 4.20062,1.18574 5.80141,2.25648 1.41622,0.93456 2.46177,2.01768 3.13559,3.25038 0.67569,1.23625 0.99821,2.64239 0.96608,4.21987 -0.0327,1.60198 -0.41557,3.03941 -1.14999,4.31056 -0.73621,1.26499 -1.84669,2.38577 -3.33202,3.36119 -1.70119,1.12256 -3.73156,1.92496 -6.08952,2.40562 -2.35927,0.47131 -5.88343,0.71416 -10.56882,0.7283 0,0 -8.48401,0.0256 -8.48401,0.0256 0,0 1.10825,-21.15213 1.10825,-21.15213 m -42.95666,0.19705 c 0,0 21.09827,-0.0968 21.09827,-0.0968 0,0 -0.31,4.03985 -0.31,4.03985 0,0 -13.34749,0.0572 -13.34749,0.0572 0,0 -0.35604,3.88986 -0.35604,3.88986 0,0 12.60464,-0.0504 12.60464,-0.0504 0,0 -0.31912,4.1115 -0.31912,4.1115 0,0 -12.66151,0.0467 -12.66151,0.0467 0,0 -0.44627,4.87569 -0.44627,4.87569 0,0 13.99285,-0.0466 13.99285,-0.0466 0,0 -0.31974,4.1941 -0.31974,4.1941 0,0 -22.04909,0.0665 -22.04909,0.0665 0,0 2.1135,-21.08773 2.1135,-21.08773 m -34.70112,0.15918 c 0,0 7.7699,-0.0356 7.7699,-0.0356 0,0 -1.02945,7.90671 -1.02945,7.90671 0,0 11.57984,-0.0463 11.57984,-0.0463 0,0 0.92919,-7.91308 0.92919,-7.91308 0,0 7.79225,-0.0357 7.79225,-0.0357 0,0 -2.29205,21.07624 -2.29205,21.07624 0,0 -7.97368,0.0241 -7.97368,0.0241 0,0 1.06273,-9.05041 1.06273,-9.05041 0,0 -11.63181,0.0429 -11.63181,0.0429 0,0 -1.17739,9.04291 -1.17739,9.04291 0,0 -7.95027,0.024 -7.95027,0.024 0,0 2.92074,-21.03569 2.92074,-21.03569 m -31.672255,0.14529 c 0,0 27.679825,-0.12697 27.679825,-0.12697 0,0 -0.57646,4.02304 -0.57646,4.02304 0,0 -10.01488,0.0429 -10.01488,0.0429 0,0 -2.623686,16.99451 -2.623686,16.99451 0,0 -7.923919,0.0239 -7.923919,0.0239 0,0 2.768585,-16.98507 2.768585,-16.98507 0,0 -10.008466,0.0429 -10.008466,0.0429 0,0 0.699001,-4.01525 0.699001,-4.01525"
           style="font-size:80px;font-style:italic;font-variant:normal;font-weight:600;font-stretch:normal;fill:#ffffff;font-family:FreeSans;-inkscape-font-specification:FreeSans Semi-Bold Italic"
           id="path3192"
           inkscape:connector-curvature="0" />
      </g>
      <flowRoot
         style="font-size:40px;font-style:normal;font-weight:normal;line-height:125%;letter-spacing:0px;word-spacing:0px;fill:#000000;fill-opacity:1;stroke:none;font-family:Sans"
         id="flowRoot3211"
         xml:space="preserve"><flowRegion
           id="flowRegion3213"><rect
             y="37.678925"
             x="-218.22377"
             height="139.72601"
             width="215.08386"
             id="rect3215" /></flowRegion><flowPara
           id="flowPara3217" /></flowRoot>    </g>
  </g>
</svg>
